<?xml version="1.0" standalone="no"?>
<!DOCTYPE svg PUBLIC "-//W3C//DTD SVG 20010904//EN"
 "http://www.w3.org/TR/2001/REC-SVG-20010904/DTD/svg10.dtd">
<svg version="1.0" xmlns="http://www.w3.org/2000/svg"
 width="1448.000000pt" height="1086.000000pt" viewBox="0 0 1448.000000 1086.000000"
 preserveAspectRatio="xMidYMid meet">

<g transform="translate(0.000000,1086.000000) scale(0.100000,-0.100000)"
fill="#000000" stroke="none">
<path d="M10660 9414 c-432 -39 -770 -119 -1094 -258 -60 -26 -208 -98 -330
-160 -249 -127 -337 -162 -369 -145 -15 8 -30 8 -59 -2 -31 -10 -43 -10 -63 1
-21 11 -32 11 -59 2 -18 -7 -47 -12 -65 -12 -18 0 -41 -5 -52 -10 -15 -8 -26
-6 -49 12 -26 19 -42 22 -113 21 -68 -1 -107 -8 -230 -47 -82 -25 -153 -46
-159 -46 -6 0 1 15 16 33 69 84 117 157 122 186 7 35 -8 61 -36 61 -9 0 -74
-49 -144 -110 -126 -109 -237 -196 -329 -259 l-47 -32 -10 25 c-5 14 -17 51
-26 82 -17 59 -43 93 -71 95 -44 3 -43 3 -588 -166 -148 -46 -315 -97 -371
-114 -150 -46 -178 -85 -144 -204 11 -39 16 -74 12 -78 -4 -4 -166 -59 -360
-123 -194 -65 -372 -126 -396 -137 -68 -30 -72 -38 -52 -125 21 -96 21 -93
-14 -106 -17 -5 -35 -19 -41 -29 -5 -10 -20 -19 -33 -19 -13 0 -29 -7 -36 -15
-7 -8 -21 -15 -31 -15 -11 0 -27 -9 -36 -20 -10 -11 -27 -20 -39 -20 -13 0
-31 -10 -41 -23 -11 -13 -71 -43 -153 -76 -621 -245 -1083 -632 -1547 -1295
-405 -578 -738 -1311 -923 -2031 -193 -749 -191 -1300 5 -1697 132 -267 365
-491 648 -623 261 -122 519 -172 834 -162 280 8 483 62 888 234 512 219 840
288 1365 287 444 0 630 -28 1460 -222 527 -124 783 -162 1083 -162 321 0 592
62 861 196 530 264 889 744 1223 1634 30 80 88 237 128 350 200 562 282 747
618 1390 228 435 345 680 439 920 269 678 368 1316 282 1820 -36 210 -114 413
-221 574 -278 417 -711 610 -1388 621 -121 1 -240 1 -265 -1z m575 -80 c233
-32 403 -82 569 -167 357 -182 587 -512 667 -957 27 -147 36 -459 19 -626 -48
-479 -196 -975 -455 -1523 -84 -180 -107 -225 -300 -591 -297 -563 -399 -795
-620 -1415 -59 -165 -133 -366 -165 -446 -233 -583 -493 -981 -804 -1233 -122
-99 -213 -156 -359 -226 -300 -144 -605 -198 -965 -172 -275 20 -490 57 -952
166 -764 179 -1006 215 -1435 216 -518 0 -885 -80 -1426 -310 -224 -96 -409
-159 -534 -184 -400 -79 -790 -26 -1145 155 -376 192 -608 507 -686 934 -27
141 -27 526 -1 710 64 449 228 1015 437 1504 169 395 337 702 576 1051 348
509 696 852 1110 1096 172 101 530 262 559 250 10 -3 40 -85 40 -109 0 -4 -54
-29 -120 -56 -577 -232 -983 -568 -1423 -1173 -537 -741 -946 -1770 -1053
-2653 -17 -136 -17 -451 0 -545 32 -188 81 -336 148 -449 285 -480 974 -721
1604 -561 123 32 258 80 445 160 395 168 633 239 979 289 515 75 984 37 1745
-140 792 -185 973 -214 1315 -213 188 0 223 3 336 27 700 148 1156 632 1534
1632 29 77 74 201 100 275 113 325 204 566 292 770 52 121 285 588 396 797
251 468 428 865 526 1178 191 613 231 1144 115 1548 -34 121 -91 249 -149 338
-58 88 -217 250 -298 303 -174 113 -369 179 -652 218 -139 19 -570 16 -730 -6
-425 -58 -678 -139 -1109 -356 -257 -129 -391 -187 -417 -178 -6 2 -19 29 -29
61 l-18 56 66 22 c36 12 181 79 321 149 300 150 356 175 516 230 262 90 519
140 885 174 87 8 436 -5 545 -20z m-164 -185 c435 -34 703 -140 916 -362 161
-168 254 -371 298 -652 68 -441 -31 -1039 -274 -1647 -75 -187 -195 -442 -342
-721 -421 -802 -495 -967 -734 -1642 -133 -375 -207 -560 -310 -770 -159 -324
-303 -535 -485 -715 -182 -180 -385 -306 -620 -384 -382 -126 -759 -110 -1515
65 -698 162 -852 192 -1200 231 -144 16 -580 16 -720 -1 -415 -48 -661 -114
-1090 -291 -300 -124 -309 -127 -425 -161 -171 -49 -268 -62 -445 -62 -281 0
-527 63 -755 193 -278 160 -442 381 -517 699 -31 131 -42 423 -24 603 82 798
464 1809 958 2535 434 638 858 1012 1417 1247 159 67 165 69 220 72 117 7 136
10 146 20 7 7 28 10 50 7 26 -4 47 0 69 13 24 14 33 16 43 6 7 -7 38 -12 69
-12 45 0 101 15 260 70 111 39 204 68 206 66 2 -2 -25 -45 -60 -97 -75 -110
-97 -150 -97 -179 0 -26 37 -42 65 -27 11 6 107 100 214 209 106 109 196 198
200 198 3 -1 15 -20 26 -43 14 -29 32 -48 58 -60 l37 -19 513 158 c281 86 521
163 533 171 27 17 44 55 44 100 0 24 9 47 30 74 29 36 43 42 213 98 100 33
249 81 332 106 165 52 250 99 275 151 12 25 25 34 63 44 26 6 52 20 57 30 5
10 24 21 40 25 17 4 36 15 43 26 7 11 23 19 40 19 19 0 38 10 55 28 17 18 54
38 97 52 39 13 183 80 321 150 267 135 443 209 615 259 358 104 752 147 1090
120z m-3095 -324 c-36 -42 -66 -80 -66 -85 0 -7 -56 -28 -120 -46 -8 -2 3 11
24 29 21 17 80 66 130 108 50 42 93 75 95 73 2 -1 -26 -37 -63 -79z m513 -42
c15 -30 101 -323 101 -348 0 -22 -45 -62 -53 -47 -3 4 -28 81 -56 172 -29 91
-56 178 -62 194 -14 43 -12 46 26 46 22 0 37 -6 44 -17z m238 5 c5 -7 20 -46
32 -85 41 -132 40 -131 25 -144 -9 -7 -18 -8 -23 -3 -17 17 -74 211 -68 228 8
19 21 21 34 4z m-1223 -45 c200 -661 236 -789 227 -810 -7 -14 -28 -26 -68
-38 -65 -19 -611 -185 -805 -246 -137 -42 -160 -46 -177 -26 -6 8 -28 74 -50
148 -21 74 -73 249 -115 390 -42 141 -76 266 -76 276 0 11 8 27 18 35 9 8 130
50 267 92 138 42 358 110 490 151 132 41 248 74 257 75 12 0 22 -15 32 -47z
m882 -97 c24 -77 43 -141 41 -142 -1 -1 -117 -36 -257 -77 -140 -42 -300 -89
-355 -106 -55 -16 -103 -27 -106 -23 -3 4 -13 32 -22 62 -8 30 -26 91 -40 135
-14 44 -23 82 -21 84 9 10 681 210 698 208 16 -2 28 -29 62 -141z m474 62 c12
-39 24 -77 27 -84 3 -9 -2 -14 -14 -14 -16 0 -24 15 -42 75 -22 73 -22 113 -1
100 5 -3 19 -38 30 -77z m-196 -70 c20 -60 36 -115 36 -123 0 -7 -12 -15 -26
-18 -31 -6 -37 6 -80 156 -27 95 -27 97 -8 112 27 20 35 7 78 -127z m-195
-244 c7 -26 11 -48 9 -49 -12 -11 -703 -225 -713 -221 -12 4 -40 94 -32 102 4
4 633 194 682 207 39 9 43 7 54 -39z m-2007 -274 c16 -52 27 -101 26 -109 -2
-8 -125 -54 -333 -122 -181 -60 -335 -109 -341 -109 -9 0 -87 210 -80 216 8 7
675 222 685 221 8 -1 25 -41 43 -97z m-708 -391 c43 -132 75 -243 72 -246 -3
-3 -16 -3 -29 1 -21 5 -31 25 -76 165 -28 87 -51 170 -51 183 0 14 -7 47 -15
74 -14 46 -10 63 15 64 3 0 41 -108 84 -241z m791 111 c16 -55 26 -102 24
-104 -3 -3 -151 -55 -329 -117 -179 -61 -330 -114 -337 -116 -14 -5 -78 196
-66 208 8 8 658 228 674 229 4 0 19 -45 34 -100z m-880 -215 c22 -63 36 -118
32 -122 -12 -11 -22 11 -62 124 -40 117 -39 113 -22 113 8 0 29 -47 52 -115z
m-93 18 c12 -27 29 -77 39 -113 17 -63 17 -64 -1 -42 -18 21 -70 163 -70 190
0 24 11 11 32 -35z m-60 -63 c29 -87 36 -132 18 -114 -10 10 -70 179 -70 197
0 5 5 7 12 5 6 -2 24 -42 40 -88z m-79 -27 c30 -87 33 -103 15 -103 -15 0 -72
155 -63 170 13 21 22 8 48 -67z m999 40 c-37 -47 -198 -204 -187 -183 5 8 22
34 38 58 16 24 40 62 53 85 21 37 60 62 122 76 2 1 -10 -16 -26 -36z"/>
</g>
</svg>
