<!-- icon666.com - MILLIONS OF FREE VECTOR ICONS --><svg fill="none" viewBox="0 0 24 24" xmlns="http://www.w3.org/2000/svg"><path clip-rule="evenodd" d="m3 11.9995c0-1.1819.23279-2.35214.68508-3.44402.4523-1.09187 1.11523-2.08398 1.95096-2.91967.83573-.83568 1.82788-1.49859 2.91981-1.95086s2.26225-.68505 3.44415-.68505 2.3522.23278 3.4442.68505c1.0919.45227 2.084 1.11518 2.9198 1.95086.8357.83569 1.4986 1.8278 1.9509 2.91967.4523 1.09188.6851 2.26212.6851 3.44402 0 2.3868-.9482 4.6759-2.636 6.3636-1.6879 1.6878-3.9771 2.6359-6.364 2.6359-2.38695 0-4.67613-.9481-6.36396-2.6359-1.68783-1.6877-2.63604-3.9768-2.63604-6.3636zm9-10.9995c-6.075 0-11 4.92476-11 10.9995 0 6.0747 4.925 10.9994 11 10.9994s11-4.9247 11-10.9994c0-6.07474-4.925-10.9995-11-10.9995zm1 5.99971c0-.2652-.1054-.51955-.2929-.70707-.1875-.18753-.4419-.29288-.7071-.29288s-.5196.10535-.7071.29288c-.1875.18752-.2929.44187-.2929.70707v3.99979h-4c-.26522 0-.51957.1054-.70711.2929-.18753.1875-.29289.4419-.29289.7071s.10536.5195.29289.707c.18754.1876.44189.2929.70711.2929h4v3.9998c0 .2652.1054.5196.2929.7071s.4419.2929.7071.2929.5196-.1054.7071-.2929.2929-.4419.2929-.7071v-3.9998h4c.2652 0 .5196-.1053.7071-.2929.1875-.1875.2929-.4418.2929-.707s-.1054-.5196-.2929-.7071-.4419-.2929-.7071-.2929h-4z" fill="rgb(0,0,0)" fill-rule="evenodd" style="fill: rgb(83, 113, 173);"></path></svg>