<!-- icon666.com - MILLIONS OF FREE VECTOR ICONS --><svg version="1.1" id="Capa_1" xmlns="http://www.w3.org/2000/svg" xmlns:xlink="http://www.w3.org/1999/xlink" x="0px" y="0px" viewBox="0 0 512 512" style="enable-background:new 0 0 512 512;" xml:space="preserve"><g><g><g><path d="M400,0H112C50.144,0,0,50.144,0,112v288c0,61.856,50.144,112,112,112h288c61.856,0,112-50.144,112-112V112 C512,50.144,461.856,0,400,0z M480,400c0,44.183-35.817,80-80,80H112c-44.183,0-80-35.817-80-80V112c0-44.183,35.817-80,80-80 h288c44.183,0,80,35.817,80,80V400z" fill="#000000" style="fill: rgb(83, 113, 173);"></path><polygon points="272,96 240,96 240,240 96,240 96,272 240,272 240,416 272,416 272,272 416,272 416,240 272,240 " fill="#000000" style="fill: rgb(83, 113, 173);"></polygon></g></g></g></svg>