<!-- icon666.com - MILLIONS OF FREE VECTOR ICONS --><svg id="svg2" viewBox="0 0 512 512" xmlns="http://www.w3.org/2000/svg" xmlns:svg="http://www.w3.org/2000/svg" isolation="isolate"><g id="g4142" fill-rule="evenodd"><path id="path4" d="m212.077 426.207c-16.111-4.154-31.33-10.54-45.307-18.807l-26.078 26.087c-9.085 9.088-23.837 9.088-32.922 0l-29.195-29.205c-9.085-9.088-9.085-23.845 0-32.933l26.078-26.087c-8.264-13.983-14.648-29.207-18.801-45.324h-30.569c-12.85 0-23.283-10.432-23.283-23.283v-41.31c0-12.851 10.433-23.283 23.283-23.283h30.569c4.153-16.117 10.537-31.341 18.801-45.324l-26.078-26.087c-9.085-9.088-9.085-23.845 0-32.933l29.195-29.205c9.085-9.088 23.837-9.088 32.922 0l26.078 26.087c13.977-8.267 29.196-14.653 45.307-18.807v-30.51c0-12.85 10.433-23.283 23.283-23.283h41.28c12.85 0 23.283 10.433 23.283 23.283v30.51c16.111 4.154 31.33 10.54 45.307 18.807l26.078-26.087c9.085-9.088 23.837-9.088 32.922 0l29.195 29.205c9.085 9.088 9.085 23.845 0 32.933l-26.078 26.087c8.264 13.983 14.648 29.207 18.801 45.324h30.569c12.85 0 23.283 10.432 23.283 23.283v41.31c0 12.851-10.433 23.283-23.283 23.283h-30.569c-4.153 16.117-10.537 31.341-18.801 45.324l26.078 26.087c9.085 9.088 9.085 23.845 0 32.933l-29.195 29.205c-9.085 9.088-23.837 9.088-32.922 0l-26.078-26.087c-13.977 8.267-29.196 14.653-45.307 18.807v30.51c0 12.85-10.433 23.283-23.283 23.283h-41.28c-12.85 0-23.283-10.433-23.283-23.283zm43.923-74.207c-52.984 0-96-43.016-96-96s43.016-96 96-96 96 43.016 96 96-43.016 96-96 96z" fill="#ff9d1d" style="fill: rgb(83, 113, 173);"></path><path id="path6" d="m235.35938 28c-15.01509 0-27.28321 12.268119-27.28321 27.283203v27.525391c-14.33176 3.966052-27.93565 9.656507-40.59179 16.847656l-23.9629-23.970703c-10.61565-10.619163-27.96442-10.619163-38.58007 0l-29.195316 29.205073c-10.615671 10.61918-10.615671 27.96872 0 38.5879l23.964844 23.9746c-7.189094 12.662-12.878594 26.27152-16.84375 40.60938h-27.583985c-15.014877 0-27.283203 12.26729-27.283203 27.2832v41.3086c0 15.01591 12.268326 27.2832 27.283203 27.2832h27.583985c3.965156 14.33786 9.654656 27.94738 16.84375 40.60938l-23.964844 23.9746c-10.615671 10.61918-10.615671 27.96872 0 38.5879l29.195316 29.20507c10.61565 10.61917 27.96442 10.61917 38.58007 0l23.9629-23.9707c12.65614 7.19115 26.26003 12.8816 40.59179 16.84766v27.52539c0 15.01508 12.26812 27.2832 27.28321 27.2832h41.28124c15.01509 0 27.28321-12.26812 27.28321-27.2832v-27.52539c14.33176-3.96606 27.93565-9.65651 40.59179-16.84766l23.9629 23.9707c10.61565 10.61917 27.96442 10.61917 38.58007 0l29.19532-29.20507c10.61567-10.61918 10.61567-27.96872 0-38.5879l-23.96485-23.9746c7.1891-12.662 12.8786-26.27152 16.84375-40.60938h27.58399c15.01487 0 27.2832-12.26729 27.2832-27.2832v-41.3086c0-15.01591-12.26833-27.2832-27.2832-27.2832h-27.58399c-3.96515-14.33786-9.65465-27.94738-16.84375-40.60938l23.96485-23.9746c10.61567-10.61918 10.61567-27.96872 0-38.5879l-29.19532-29.205073c-10.61565-10.619163-27.96442-10.619163-38.58007 0l-23.9629 23.970703c-12.65614-7.191149-26.26003-12.881604-40.59179-16.847656v-27.525391c0-15.015084-12.26812-27.283203-27.28321-27.283203zm0 8h41.28124c10.68492 0 19.28321 8.598287 19.28321 19.283203v30.509766a4.0004 4.0004 0 0 0 3 3.873047c15.741 4.0586 30.61073 10.298161 44.26953 18.376954a4.0004 4.0004 0 0 0 4.86523-.61524l26.07813-26.085933c7.55434-7.556837 19.70933-7.556837 27.26367 0l29.19531 29.205083c7.55433 7.55682 7.55433 19.71856 0 27.27539l-26.07812 26.08789a4.0004 4.0004 0 0 0 -.61328 4.86328c8.07606 13.665 14.31337 28.53988 18.37109 44.28711a4.0004 4.0004 0 0 0 3.87305 3.00195h30.56836c10.68512 0 19.2832 8.59712 19.2832 19.2832v41.3086c0 10.68608-8.59808 19.2832-19.2832 19.2832h-30.56836a4.0004 4.0004 0 0 0 -3.87305 3.00195c-4.05772 15.74723-10.29503 30.62211-18.37109 44.28711a4.0004 4.0004 0 0 0 .61328 4.86328l26.07812 26.08789c7.55433 7.55683 7.55433 19.71857 0 27.27539l-29.19531 29.20508c-7.55434 7.55684-19.70933 7.55684-27.26367 0l-26.07813-26.08593a4.0004 4.0004 0 0 0 -4.86523-.61524c-13.6588 8.07879-28.52853 14.31835-44.26953 18.37695a4.0004 4.0004 0 0 0 -3 3.87305v30.50977c0 10.68491-8.59829 19.2832-19.28321 19.2832h-41.28124c-10.68492 0-19.28321-8.59829-19.28321-19.2832v-30.50977a4.0004 4.0004 0 0 0 -3-3.87305c-15.741-4.0586-30.61073-10.29816-44.26953-18.37695a4.0004 4.0004 0 0 0 -4.86523.61524l-26.07813 26.08593c-7.55434 7.55684-19.70933 7.55684-27.26367 0l-29.195313-29.20508c-7.554329-7.55682-7.554329-19.71856 0-27.27539l26.078123-26.08789a4.0004 4.0004 0 0 0 .61328-4.86328c-8.07606-13.665-14.313373-28.53988-18.371091-44.28711a4.0004 4.0004 0 0 0 -3.873047-3.00195h-30.568359c-10.685123 0-19.283203-8.59712-19.283203-19.2832v-41.3086c0-10.68608 8.59808-19.2832 19.283203-19.2832h30.568359a4.0004 4.0004 0 0 0 3.873047-3.00195c4.057718-15.74723 10.295031-30.62211 18.371091-44.28711a4.0004 4.0004 0 0 0 -.61328-4.86328l-26.078123-26.08789c-7.554329-7.55683-7.554329-19.71857 0-27.27539l29.195313-29.205083c7.55434-7.556837 19.70933-7.556837 27.26367 0l26.07813 26.085933a4.0004 4.0004 0 0 0 4.86523.61524c13.6588-8.078793 28.52853-14.318354 44.26953-18.376954a4.0004 4.0004 0 0 0 3-3.873047v-30.509766c0-10.684916 8.59829-19.283203 19.28321-19.283203zm20.64062 120c-55.14898 0-100 44.85102-100 100s44.85102 100 100 100 100-44.85102 100-100-44.85102-100-100-100zm0 8c50.81902 0 92 41.18098 92 92s-41.18098 92-92 92-92-41.18098-92-92 41.18098-92 92-92z" fill="#2e2e2e" text-indent="0" text-align="start" text-decoration-line="none" text-decoration-style="solid" text-decoration-color="#000000" text-transform="none" block-progression="tb" white-space="normal" isolation="auto" mix-blend-mode="normal" solid-color="#000000" solid-opacity="1"></path></g></svg>